<svg width="165" height="166" viewBox="0 0 165 166" fill="none" xmlns="http://www.w3.org/2000/svg">
<path d="M81.7524 17.0967C45.0914 17.0967 15.2642 46.9256 15.2642 83.5897C15.2927 87.4048 15.642 91.2108 16.3083 94.9673C16.3083 94.9899 16.3486 94.9802 16.3566 94.9996C16.4806 95.4616 16.7526 95.8702 17.1309 96.163C17.5092 96.4557 17.973 96.6165 18.4514 96.6206C19.0391 96.6201 19.6027 96.3864 20.0181 95.9706C20.4336 95.5548 20.6669 94.9911 20.6669 94.4034C20.6565 94.3317 20.642 94.2607 20.6234 94.1907L20.6621 94.173C20.0387 90.6803 19.7152 87.1408 19.6953 83.593C19.6953 49.32 47.4794 21.5359 81.7508 21.5359C116.022 21.5359 143.809 49.3232 143.809 83.593C143.809 117.863 116.025 145.648 81.7524 145.648C58.849 145.648 38.8911 133.206 28.1451 114.745C28.1451 114.734 28.1306 114.727 28.1274 114.716C28.0984 114.667 28.0662 114.621 28.0388 114.572C27.8554 114.217 27.5783 113.918 27.2375 113.709C26.8967 113.5 26.5051 113.388 26.1052 113.385C25.5177 113.385 24.9544 113.619 24.539 114.034C24.1236 114.45 23.89 115.013 23.8896 115.6C23.8998 116.057 24.0544 116.499 24.3311 116.862L24.294 116.885C35.8199 136.704 57.2312 150.078 81.7556 150.078C118.415 150.078 148.242 120.254 148.242 83.5897C148.242 46.9256 118.415 17.0967 81.7524 17.0967Z" fill="white"/>
<path d="M81.7539 92.4149C95.0183 92.4149 105.813 103.211 105.813 116.474H110.245C110.245 100.765 97.4643 87.9822 81.7539 87.9822C66.0434 87.9822 53.2607 100.765 53.2607 116.474H57.6935C57.6935 103.208 68.4813 92.4149 81.7539 92.4149Z" fill="white"/>
<path d="M53.2607 116.474C53.2607 117.061 53.4942 117.625 53.9097 118.04C54.3252 118.456 54.8887 118.689 55.4763 118.689C56.0639 118.689 56.6275 118.456 57.043 118.04C57.4585 117.625 57.6919 117.061 57.6919 116.474C57.6919 115.886 57.4585 115.323 57.043 114.907C56.6275 114.492 56.0639 114.258 55.4763 114.258C54.8887 114.258 54.3252 114.492 53.9097 114.907C53.4942 115.323 53.2607 115.886 53.2607 116.474Z" fill="white"/>
<path d="M105.812 116.474C105.812 117.061 106.046 117.625 106.461 118.04C106.877 118.456 107.44 118.689 108.028 118.689C108.616 118.689 109.179 118.456 109.595 118.04C110.01 117.625 110.244 117.061 110.244 116.474C110.244 115.886 110.01 115.323 109.595 114.907C109.179 114.492 108.616 114.258 108.028 114.258C107.44 114.258 106.877 114.492 106.461 114.907C106.046 115.323 105.812 115.886 105.812 116.474Z" fill="white"/>
<path d="M81.7523 92.4133C69.6432 92.4133 59.7915 82.5617 59.7915 70.4509C59.7915 58.3402 69.6432 48.4885 81.7523 48.4885C93.8614 48.4885 103.715 58.3418 103.715 70.4509C103.715 82.5601 93.863 92.4133 81.7523 92.4133ZM81.7523 52.9213C78.2849 52.9213 74.8953 53.9495 72.0123 55.876C69.1293 57.8024 66.8822 60.5405 65.5554 63.744C64.2285 66.9475 63.8814 70.4725 64.558 73.8733C65.2346 77.2741 66.9044 80.3979 69.3564 82.8496C71.8083 85.3013 74.9323 86.9709 78.3331 87.6471C81.7339 88.3234 85.2589 87.976 88.4623 86.6488C91.6657 85.3217 94.4036 83.0744 96.3298 80.1912C98.2559 77.308 99.2839 73.9184 99.2835 70.4509C99.278 65.8032 97.4291 61.3474 94.1425 58.0612C90.856 54.7749 86.4 52.9264 81.7523 52.9213Z" fill="white"/>
</svg>
