<svg width="52" height="52" viewBox="0 0 52 52" fill="none" xmlns="http://www.w3.org/2000/svg">
<g clip-path="url(#clip0_8_203)">
<path d="M46.6833 48.4621C46.6833 48.4621 46.6833 49.6596 46.6833 51.1837H25.9995V37.5759C29.2001 37.5759 31.4426 35.943 31.4426 35.943C32.6292 37.2711 36.3414 39.2089 36.3414 39.2089C46.6507 42.4747 46.6833 48.4621 46.6833 48.4621Z" fill="#6D6E71"/>
<path d="M25.9997 37.5759V51.1837H5.31592C5.31592 49.6596 5.31592 48.4621 5.31592 48.4621C5.31592 48.4621 5.41389 42.5074 15.6578 39.2089C15.6578 39.2089 19.37 37.2711 20.5566 35.943C20.5566 35.943 22.7992 37.5759 25.9997 37.5759Z" fill="#58595B"/>
<path d="M20.5566 35.943V32.4812C22.146 33.3086 23.9749 33.7658 25.9998 33.7658C28.0246 33.7658 29.8535 33.3086 31.4429 32.4812V35.943C31.4429 35.943 29.2003 37.576 25.9998 37.576C22.7992 37.576 20.5566 35.943 20.5566 35.943Z" fill="#FFD7A3"/>
<path d="M37.9748 14.7148C37.9748 14.7148 33.076 15.6728 25.9999 10.9047C25.2052 10.3712 14.0251 14.7148 14.0251 14.7148V9.81604C14.0251 9.81604 13.5679 1.65137 25.9999 1.65137C25.9999 1.65137 32.401 -0.798026 38.5191 2.74C44.6372 6.27802 39.4771 9.04312 45.0508 11.9933C45.0508 11.9933 44.8222 14.7148 37.9748 14.7148Z" fill="#A18369"/>
<path d="M14.0247 20.7023C14.0247 21.4316 14.0682 22.1501 14.1662 22.8469C12.4788 22.6182 10.7588 21.0071 10.7588 19.6136C10.7588 18.1113 12.2175 17.4364 14.0247 17.4364V20.7023Z" fill="#FFD7A3"/>
<path d="M37.9745 17.4364C39.7816 17.4364 41.2404 18.1113 41.2404 19.6136C41.2404 21.0071 39.5204 22.6182 37.833 22.8469C37.931 22.1501 37.9745 21.4316 37.9745 20.7023V17.4364Z" fill="#FFD7A3"/>
<path d="M37.9746 17.4364V20.7022C37.9746 21.4316 37.931 22.1501 37.8331 22.8468C37.2452 27.1033 34.9373 30.674 31.4429 32.4811C29.8535 33.3085 28.0246 33.7657 25.9997 33.7657C23.9749 33.7657 22.146 33.3085 20.5566 32.4811C17.0622 30.674 14.7543 27.1033 14.1664 22.8468C14.0684 22.1501 14.0249 21.4316 14.0249 20.7022V17.4364V14.7148C14.0249 14.7148 25.2051 10.3712 25.9997 10.9046C33.0758 15.6728 37.9746 14.7148 37.9746 14.7148V17.4364Z" fill="#FFE1B2"/>
<path d="M36.6575 38.4525C35.6851 37.9402 33.2907 36.5835 32.2594 35.61V32.9647C35.5673 31.0734 37.8292 27.6802 38.5521 23.5267C40.4259 22.9901 42.057 21.2313 42.057 19.6135C42.057 17.9758 40.826 16.8891 38.7911 16.664V15.5173C45.3941 15.2963 45.8356 12.403 45.8643 12.0615L45.9095 11.5239L45.4327 11.2716C43.0875 10.0303 42.9717 9.00813 42.8114 7.59336C42.6324 6.01322 42.4097 4.04674 38.9277 2.03322C32.9923 -1.39942 26.9014 0.471702 25.8561 0.835193C21.1211 0.858598 17.6159 2.03856 15.4365 4.34339C13.1655 6.7451 13.1963 9.50618 13.2085 9.83342V16.664C11.1736 16.8891 9.94262 17.9759 9.94262 19.6135C9.94262 21.2313 11.5737 22.9901 13.4476 23.5267C14.1712 27.6817 16.4334 31.0747 19.7402 32.9647V35.6099C18.7082 36.5839 16.3118 37.9418 15.3404 38.4533C4.72823 41.8962 4.50398 48.1821 4.49962 48.4486L4.49951 52H47.5001V48.4575C47.4987 48.1895 47.3417 41.8638 36.6575 38.4525ZM25.9998 36.7594C23.7974 36.7594 22.0704 35.9021 21.3732 35.4941V33.7436C22.8082 34.2997 24.3586 34.5822 25.9998 34.5822C27.6413 34.5822 29.1921 34.2997 30.6264 33.7438V35.4962C29.9331 35.9049 28.2187 36.7594 25.9998 36.7594ZM40.424 19.6136C40.424 20.2805 39.7026 21.1884 38.7622 21.6896C38.7801 21.367 38.7911 18.3053 38.7911 18.3053C40.2464 18.5093 40.424 19.2618 40.424 19.6136ZM16.6231 5.46532C18.5038 3.4763 21.6586 2.4678 25.9999 2.4678L26.1507 2.46736L26.2905 2.41435C26.3511 2.39149 32.4185 0.155457 38.1104 3.44669C40.8799 5.04838 41.0231 6.31281 41.1889 7.77712C41.35 9.19973 41.531 10.7973 43.9906 12.3264C43.5309 12.877 42.255 13.7635 38.7877 13.8841L37.8221 13.9126C37.8105 13.9148 36.6449 14.1219 34.6754 13.7751C32.8505 13.4536 29.9432 12.5771 26.455 10.2266C26.0564 9.95904 25.5229 9.9302 23.5688 10.4899C22.5271 10.7881 21.1391 11.2422 19.4434 11.8393C17.674 12.4623 15.9288 13.1153 14.8416 13.5278V9.816L14.8403 9.77039C14.8389 9.74753 14.7341 7.46294 16.6231 5.46532ZM11.5756 19.6136C11.5756 19.2618 11.7533 18.5093 13.2085 18.3053C13.2085 18.3053 13.2195 21.367 13.2374 21.6896C12.297 21.1883 11.5756 20.2805 11.5756 19.6136ZM14.975 22.7332C14.8864 22.1028 14.8414 21.4196 14.8414 20.7022V15.2745C19.4967 13.4816 24.5944 11.7273 25.6838 11.6757C31.1318 15.305 35.3406 15.663 37.1582 15.6064V20.7022C37.1582 21.4196 37.1132 22.1028 37.0244 22.7351C36.4629 26.8008 34.2918 30.0888 31.066 31.757C29.5461 32.5482 27.8415 32.9492 25.9999 32.9492C24.1583 32.9492 22.4537 32.5481 20.9318 31.7559C17.7079 30.0886 15.5368 26.8007 14.975 22.7332ZM6.13245 48.472C6.13854 48.3071 6.43432 43.0365 15.9082 39.986C15.9082 39.986 19.1699 38.2797 20.666 36.9733C21.4855 37.4389 23.1027 38.1936 25.1834 38.3585V50.3672H6.13255L6.13245 48.472ZM45.8672 50.3672H26.8163V38.3585C28.897 38.1936 30.5142 37.4389 31.3337 36.9733C32.8298 38.2797 36.0951 39.9872 36.0951 39.9872C38.8664 40.865 42.5965 42.519 44.6295 45.4124C45.7963 47.073 45.8644 48.4016 45.8672 48.471V50.3672Z" fill="#231F20"/>
<path d="M25.9996 25.8732H28.1768V24.2403H26.816V20.7023H25.1831V25.0568C25.1831 25.5077 25.5487 25.8732 25.9996 25.8732Z" fill="#231F20"/>
<path d="M30.3545 40.5696H28.1772V42.2025H30.3545V40.5696Z" fill="#231F20"/>
<path d="M30.3545 43.8354H28.1772V45.4684H30.3545V43.8354Z" fill="#231F20"/>
<path d="M30.3545 47.1013H28.1772V48.7343H30.3545V47.1013Z" fill="#231F20"/>
<path d="M23.8228 40.5696H21.6455V42.2025H23.8228V40.5696Z" fill="#231F20"/>
<path d="M23.8228 43.8354H21.6455V45.4684H23.8228V43.8354Z" fill="#231F20"/>
<path d="M23.8228 47.1013H21.6455V48.7343H23.8228V47.1013Z" fill="#231F20"/>
</g>
<defs>
<clipPath id="clip0_8_203">
<rect width="52" height="52" fill="white"/>
</clipPath>
</defs>
</svg>
