<svg width="52" height="52" viewBox="0 0 52 52" fill="none" xmlns="http://www.w3.org/2000/svg">
<path d="M8.30932 43.5728C9.81035 42.104 12.1584 40.5815 15.8145 39.4021C16.0396 39.445 25.464 44.2268 35.1134 44.2268C35.1134 44.2268 41.139 47.8936 39.9382 51.1959H5.62891C5.62891 49.6949 5.62891 48.5155 5.62891 48.5155C5.62891 48.5155 5.67179 46.1353 8.30932 43.5728Z" fill="#BE373F"/>
<path d="M39.4019 35.1135C39.4019 35.1135 43.594 38.598 43.6905 43.5192C42.1895 42.0718 39.8522 40.5601 36.1854 39.4021C36.1854 39.4021 32.5293 37.4937 31.3606 36.1856V35.6496V32.7762C35.3705 30.7069 37.7936 26.2896 37.7936 21.1753V15.2784C30.7602 15.2784 25.4637 11.5258 25.4637 11.5258C25.4637 14.7423 14.206 15.2784 14.206 15.2784V21.1753C14.206 26.2896 16.6291 30.7069 20.639 32.7762V35.6496V36.1856C19.4703 37.4937 15.8142 39.4021 15.8142 39.4021C12.1582 40.5815 9.81011 42.104 8.30908 43.5729C8.37341 38.6302 12.5977 35.1135 12.5977 35.1135C12.5977 35.1135 -2.2303 0.804199 25.9998 0.804199C54.2299 0.804199 39.4019 35.1135 39.4019 35.1135Z" fill="#A18369"/>
<path d="M43.6907 43.5192C46.3604 46.1031 46.3712 48.5155 46.3712 48.5155C46.3712 48.5155 46.3712 49.6949 46.3712 51.1959H39.9382C41.139 47.8936 35.1134 44.2268 35.1134 44.2268C25.4639 44.2268 16.0396 39.445 15.8145 39.4021C15.8145 39.4021 19.4705 37.4936 20.6392 36.1856V35.6495V32.7761C22.2046 33.591 24.0058 34.0413 26 34.0413C27.9942 34.0413 29.7955 33.591 31.3608 32.7761V35.6495V36.1856C32.5295 37.4936 36.1856 39.4021 36.1856 39.4021C39.8524 40.56 42.1897 42.0718 43.6907 43.5192Z" fill="#FFD7A3"/>
<path d="M31.3607 32.7762C29.7953 33.591 27.9941 34.0413 25.9999 34.0413C24.0056 34.0413 22.2044 33.591 20.639 32.7762C16.6291 30.7069 14.2061 26.2896 14.2061 21.1754V15.2785C14.2061 15.2785 25.4638 14.7424 25.4638 11.5259C25.4638 11.5259 30.7603 15.2785 37.7937 15.2785V21.1754C37.7937 26.2896 35.3706 30.7069 31.3607 32.7762Z" fill="#FFE1B2"/>
<path d="M44.4814 43.1721C44.2597 39.0443 41.4701 35.9664 40.3605 34.8989C40.9105 33.529 42.3537 29.6902 43.2831 24.9918C43.9577 21.5816 44.2153 18.4323 44.0489 15.6317C43.8375 12.0738 42.9373 9.06312 41.3732 6.68345C38.4587 2.24865 33.2863 0 26 0C18.7136 0 13.5412 2.24865 10.6266 6.68345C9.06265 9.06312 8.16246 12.0738 7.95093 15.6317C7.78453 18.4323 8.04217 21.5816 8.71677 24.9918C9.64613 29.6905 11.0896 33.5296 11.6395 34.8992C10.5259 35.972 7.71805 39.074 7.5167 43.2283C4.90265 45.9035 4.82674 48.3933 4.82481 48.501L4.82471 52H47.1752V48.5119C47.1747 48.4027 47.1315 45.8749 44.4814 43.1721ZM13.1123 35.7314L13.5744 35.3466L13.3361 34.7946C13.3168 34.7499 11.3951 30.2631 10.2885 24.6493C9.28352 19.5518 8.75987 12.4499 11.972 7.56455C14.5708 3.61223 19.2905 1.60825 26 1.60825C32.7095 1.60825 37.4291 3.61223 40.0279 7.56455C43.24 12.4498 42.7163 19.5518 41.7114 24.6493C40.6047 30.2631 38.683 34.7499 38.6637 34.7946L38.4252 35.3472L38.8879 35.7318C38.9212 35.7594 41.717 38.1219 42.6137 41.5906C40.9565 40.4087 38.9088 39.4251 36.4961 38.657C35.5385 38.1526 33.1809 36.8169 32.1648 35.8582V33.253C34.0755 32.1607 35.6665 30.529 36.7846 28.5065C37.9709 26.3611 38.5979 23.8261 38.5979 21.1753V14.4742H37.7938C31.1158 14.4742 25.9792 10.9052 25.9288 10.8696L24.6598 9.97049V11.5258C24.6598 12.1748 23.3564 13.1172 19.6986 13.8156C16.9715 14.3363 14.1955 14.4738 14.1679 14.4751L13.402 14.5119V21.1753C13.402 23.8261 14.029 26.3611 15.2153 28.5066C16.3334 30.5291 17.9243 32.1608 19.835 33.2531V35.8582C18.8182 36.8174 16.4578 38.1545 15.5015 38.6581C13.0771 39.4461 11.0269 40.4444 9.3769 41.6348C10.2624 38.1567 13.0797 35.7587 13.1123 35.7314ZM30.9895 32.0629C29.4925 32.842 27.8137 33.2371 26 33.2371C24.1862 33.2371 22.5074 32.842 21.0104 32.0629L21.008 32.0615C19.1868 31.1216 17.6704 29.6234 16.6227 27.7284C15.5678 25.8205 15.0103 23.5545 15.0103 21.1753V16.0328C16.0511 15.9561 18.0058 15.7753 19.9854 15.3981C23.1788 14.7899 25.1326 13.9182 25.8974 12.7522C27.6476 13.7858 31.7842 15.8676 36.9897 16.0669V21.1753C36.9897 23.5545 36.4321 25.8205 35.3772 27.7284C34.3296 29.6234 32.8133 31.1217 30.9895 32.0629ZM21.2388 36.7213L21.4433 36.4924V34.0195C22.8566 34.5671 24.3836 34.8453 26 34.8453C27.6168 34.8453 29.1442 34.567 30.5567 34.0196V36.4923L30.7611 36.7212C31.9198 38.0182 35.0307 39.7013 35.7142 40.0626L34.5444 43.4164C29.5111 43.3145 23.5667 41.8736 17.6238 39.3195C18.8334 38.6177 20.468 37.584 21.2388 36.7213ZM6.43295 48.5299C6.44025 48.3739 6.57866 46.3752 8.8717 44.1476C10.4997 42.5545 12.8233 41.2488 15.7776 40.2622C15.799 40.2718 15.8205 40.2816 15.8421 40.2913C22.4916 43.3062 29.2412 44.985 34.8812 45.03C36.2951 45.936 39.3812 48.3732 39.2868 50.3918H6.43295V48.5299ZM45.567 50.3918H40.8976C40.9426 48.6682 39.7041 47.0408 38.5389 45.8987C37.6289 45.0067 36.6646 44.2982 36.0796 43.8983L37.2266 40.6101C39.6953 41.5268 41.6789 42.6964 43.1313 44.0971C45.4925 46.3823 45.565 48.4397 45.5669 48.5155L45.567 50.3918Z" fill="#231F20"/>
<path d="M26.804 21.1753H25.1958V25.464C25.1958 25.9082 25.5558 26.2681 25.9999 26.2681H28.1443V24.6598H26.804V21.1753Z" fill="#231F20"/>
</svg>
