<svg width="52" height="52" viewBox="0 0 52 52" fill="none" xmlns="http://www.w3.org/2000/svg">
<path d="M46.3713 48.5154C46.3713 48.5154 46.3713 49.6948 46.3713 51.1958H37.7939V39.9702C46.3391 43.2618 46.3713 48.5154 46.3713 48.5154Z" fill="#C7CAC7"/>
<path d="M41.0104 11.5258V15.2783H37.7939H14.2062H10.9897V11.5258H15.8145H36.1856H41.0104Z" fill="#414042"/>
<path d="M37.7937 17.9587C39.5735 17.9587 41.0102 18.6235 41.0102 20.1031C41.0102 21.4754 39.3162 23.0622 37.6543 23.2874C37.7508 22.6012 37.7937 21.8936 37.7937 21.1752V17.9587Z" fill="#FFD7A3"/>
<path d="M37.7937 39.9703V51.1959H14.2061V39.981C14.71 39.7773 15.2461 39.5843 15.8143 39.402C15.8143 39.402 19.4704 37.4936 20.639 36.1855C20.639 36.1855 22.8477 38.866 25.9999 38.866C29.152 38.866 31.3607 36.1855 31.3607 36.1855C32.5294 37.4936 36.1854 39.402 36.1854 39.402C36.7537 39.5843 37.2898 39.7666 37.7937 39.9703Z" fill="#414042"/>
<path d="M37.6543 23.2874C37.0753 27.4796 34.8023 30.9963 31.3607 32.7761C29.7953 33.5909 27.9941 34.0412 25.9999 34.0412C24.0056 34.0412 22.2044 33.5909 20.639 32.7761C17.1974 30.9963 14.9244 27.4796 14.3454 23.2874C14.2489 22.6012 14.2061 21.8936 14.2061 21.1752V17.9587V15.2783H37.7937V17.9587V21.1752C37.7937 21.8936 37.7508 22.6012 37.6543 23.2874Z" fill="#FFE1B2"/>
<path d="M36.1856 7.77319H15.8145V11.5258H36.1856V7.77319Z" fill="#C7CAC7"/>
<path d="M36.1856 4.02057V7.77315H15.8145V4.02057C15.8145 4.02057 16.8223 0.804077 20.1031 0.804077C23.3839 0.804077 26 0.804077 26 0.804077C26 0.804077 28.6161 0.804077 31.8969 0.804077C35.1778 0.804077 36.1856 4.02057 36.1856 4.02057Z" fill="#58595B"/>
<path d="M31.3608 32.776V36.1855C31.3608 36.1855 29.1521 38.8659 26 38.8659C22.8478 38.8659 20.6392 36.1855 20.6392 36.1855V32.776C22.2045 33.5908 24.0058 34.0412 26 34.0412C27.9942 34.0412 29.7954 33.5908 31.3608 32.776Z" fill="#FFD7A3"/>
<path d="M14.2062 21.1752C14.2062 21.8936 14.2491 22.6012 14.3456 23.2874C12.6838 23.0622 10.9897 21.4754 10.9897 20.1031C10.9897 18.6235 12.4264 17.9587 14.2062 17.9587V21.1752Z" fill="#FFD7A3"/>
<path d="M14.2062 39.981V51.1958H5.62891C5.62891 49.6948 5.62891 48.5154 5.62891 48.5154C5.62891 48.5154 5.71468 43.2939 14.2062 39.981Z" fill="#C7CAC7"/>
<path d="M38.0889 39.2223C37.5371 38.9996 36.9562 38.8054 36.4976 38.6577C35.5406 38.1537 33.1811 36.8167 32.1649 35.8576V33.2522C35.4228 31.3896 37.6506 28.0475 38.3625 23.9569C40.2081 23.4285 41.8144 21.6964 41.8144 20.1031C41.8144 18.4901 40.602 17.4199 38.5979 17.1982V16.0825H41.8144V10.7216H36.9897V3.89764L36.9529 3.78024C36.5432 2.47273 34.9593 0 31.8969 0H20.1031C17.0406 0 15.4567 2.47273 15.0471 3.78024L15.0103 3.89764V10.7216H10.1855V16.0825H13.402V17.1982C11.3979 17.4199 10.1855 18.4902 10.1855 20.1031C10.1855 21.6964 11.7918 23.4286 13.6375 23.9571C14.35 28.0492 16.5782 31.3911 19.835 33.2524V35.8577C18.8187 36.8169 16.4589 38.154 15.5021 38.6579C14.9414 38.8393 14.4048 39.0335 13.9139 39.2319C5.02156 42.7011 4.82867 48.267 4.82481 48.5023L4.82471 52H47.1752V48.5105C47.1737 48.2737 47.0364 42.6715 38.0889 39.2223ZM21.4433 34.0195C22.8566 34.5671 24.3836 34.8454 26 34.8454C27.6167 34.8454 29.144 34.5671 30.5567 34.0197V35.8758C30.0066 36.4508 28.2637 38.0619 26 38.0619C23.7509 38.0619 21.9959 36.4477 21.4433 35.8742V34.0195ZM40.2062 20.1031C40.2062 20.7599 39.4956 21.6541 38.5694 22.1477C38.5871 21.8299 38.5979 18.8146 38.5979 18.8146C40.0311 19.0155 40.2062 19.7566 40.2062 20.1031ZM20.1031 1.60825H31.8969C34.2624 1.60825 35.1922 3.66455 35.3814 4.15861V6.96907H16.6185V4.15904C16.8102 3.65887 17.7409 1.60825 20.1031 1.60825ZM16.6185 8.57732H35.3814V10.7216H16.6185V8.57732ZM11.7938 12.3299H40.2062V14.4742H11.7938V12.3299ZM11.7938 20.1031C11.7938 19.7566 11.9689 19.0155 13.402 18.8146C13.402 18.8146 13.4129 21.83 13.4305 22.1477C12.5043 21.6541 11.7938 20.7599 11.7938 20.1031ZM15.1418 23.1755C15.0546 22.5544 15.0103 21.8815 15.0103 21.1753V16.0825H36.9897V21.1753C36.9897 21.8815 36.9454 22.5544 36.8579 23.1774C36.3049 27.1816 34.1665 30.4198 30.9896 32.0629C29.4925 32.842 27.8139 33.2371 26 33.2371C24.1861 33.2371 22.5074 32.842 21.0085 32.0618C17.8334 30.4198 15.6952 27.1816 15.1418 23.1755ZM16.06 40.1678C16.06 40.1678 19.1123 38.572 20.6119 37.3155C21.5389 38.1884 23.4833 39.6701 26 39.6701C28.5167 39.6701 30.461 38.1884 31.388 37.3155C32.8877 38.572 35.9399 40.1678 35.9399 40.1678C36.2458 40.2659 36.6153 40.3875 36.9897 40.5239V50.3918H15.0103V40.5321C15.3469 40.4064 15.6972 40.2841 16.06 40.1678ZM6.43295 48.5303C6.43778 48.4415 6.51894 47.2937 7.47917 45.8167C8.90815 43.6188 11.3154 42.1349 13.402 41.1914V50.3918H6.43295V48.5303ZM45.567 50.3918H38.5979V41.1748C40.6932 42.1107 43.1166 43.5926 44.5396 45.8004C45.5038 47.2964 45.5644 48.4589 45.567 48.5246V50.3918Z" fill="#231F20"/>
<path d="M25.9968 27.1372L28.1425 29.2811L30.8571 26.5689L29.7204 25.4311L28.1425 27.0076L26.8043 25.6705V22.2474H25.196V25.6634L23.8538 27.0067L22.2804 25.4317L21.1426 26.5684L23.8535 29.282L25.9968 27.1372Z" fill="#231F20"/>
<path d="M27.0721 47.1753H24.9277V48.7835H27.0721V47.1753Z" fill="#231F20"/>
<path d="M27.0721 43.9587H24.9277V45.567H27.0721V43.9587Z" fill="#231F20"/>
</svg>
