<svg width="197" height="38" viewBox="0 0 197 38" fill="none" xmlns="http://www.w3.org/2000/svg">
<path fill-rule="evenodd" clip-rule="evenodd" d="M13.3607 0L0 7.47191V22.5225L4.58076e-05 34.7977L5.34434 38V25.6394L13.3607 30.3146L26.187 22.5225V7.47191L13.3607 0ZM5.13053 10.5028L13.2015 5.97752L20.9496 10.5028V19.6179L13.2015 24.3371L5.13053 19.6179V10.5028Z" fill="white"/>
<path d="M41.9316 28.3798V12.2178H51.5032C52.6746 12.2178 53.715 12.4563 54.6244 12.9335C55.5492 13.4107 56.2813 14.0648 56.8208 14.896C57.3603 15.7272 57.63 16.6815 57.63 17.759C57.63 18.9134 57.3448 19.9447 56.7746 20.8529C56.2197 21.761 55.449 22.4768 54.4626 23.0001C53.4761 23.5081 52.3664 23.7621 51.1333 23.7621H46.9255V28.3798H41.9316ZM46.833 19.5138H50.0698C50.5168 19.5138 50.9098 19.4522 51.2489 19.329C51.6034 19.2059 51.8809 19.0212 52.0812 18.7749C52.297 18.5132 52.4049 18.2054 52.4049 17.8514C52.4049 17.5281 52.297 17.2665 52.0812 17.0664C51.8809 16.8663 51.6034 16.72 51.2489 16.6277C50.9098 16.5199 50.5168 16.4661 50.0698 16.4661H46.833V19.5138ZM63.6291 28.3798V12.2178H72.6227C74.087 12.2178 75.2969 12.4256 76.2525 12.8411C77.2235 13.2567 77.9557 13.857 78.4489 14.6421C78.9421 15.4271 79.1887 16.3814 79.1887 17.505C79.1887 18.5979 78.9113 19.5676 78.3564 20.4142C77.8169 21.2454 77.0771 21.8996 76.1369 22.3767C75.1967 22.8539 74.1178 23.0925 72.9001 23.0925H68.2993V28.3798H63.6291ZM74.4492 28.3798L69.2241 21.0838L74.4029 20.5066L80.0904 28.3798H74.4492ZM68.2993 19.6292H72.2528C72.6227 19.6292 72.9541 19.5676 73.2469 19.4445C73.5398 19.306 73.7787 19.1059 73.9637 18.8442C74.1486 18.5825 74.2411 18.2516 74.2411 17.8514C74.2411 17.4666 74.1486 17.151 73.9637 16.9047C73.7787 16.6431 73.5321 16.4507 73.2238 16.3275C72.9155 16.2044 72.561 16.1428 72.1603 16.1428H68.2993V19.6292ZM94.8223 28.6107C93.3118 28.6107 91.9323 28.4029 90.6838 27.9873C89.4354 27.5563 88.3565 26.9637 87.4471 26.2094C86.5377 25.4552 85.8364 24.5702 85.3432 23.5543C84.8499 22.523 84.6033 21.3993 84.6033 20.1833C84.6033 18.9673 84.8499 17.8514 85.3432 16.8355C85.8518 15.8042 86.5608 14.9114 87.4702 14.1572C88.3796 13.403 89.4508 12.8181 90.6838 12.4025C91.9323 11.9715 93.3041 11.756 94.7992 11.756C96.2942 11.756 97.6583 11.9715 98.8914 12.4025C100.14 12.8181 101.219 13.4107 102.128 14.1803C103.038 14.9345 103.739 15.8273 104.232 16.8586C104.741 17.8745 104.995 18.975 104.995 20.1602C104.995 21.3762 104.741 22.4999 104.232 23.5312C103.739 24.5471 103.038 25.4398 102.128 26.2094C101.219 26.9637 100.14 27.5563 98.8914 27.9873C97.6583 28.4029 96.302 28.6107 94.8223 28.6107ZM94.7992 23.9929C95.539 23.9929 96.2249 23.9006 96.8568 23.7159C97.4888 23.5158 98.0282 23.2464 98.4752 22.9078C98.9222 22.5538 99.269 22.1459 99.5156 21.6841C99.7776 21.2223 99.9086 20.7221 99.9086 20.1833C99.9086 19.6446 99.7776 19.1443 99.5156 18.6826C99.269 18.2208 98.9222 17.8206 98.4752 17.482C98.0282 17.1279 97.4888 16.8586 96.8568 16.6739C96.2249 16.4738 95.539 16.3737 94.7992 16.3737C94.0593 16.3737 93.3734 16.4738 92.7415 16.6739C92.125 16.8586 91.5855 17.1279 91.1231 17.482C90.6607 17.8206 90.3062 18.2208 90.0596 18.6826C89.813 19.1443 89.6897 19.6446 89.6897 20.1833C89.6897 20.7221 89.813 21.2223 90.0596 21.6841C90.3062 22.1459 90.6607 22.5538 91.1231 22.9078C91.5855 23.2464 92.125 23.5158 92.7415 23.7159C93.3734 23.9006 94.0593 23.9929 94.7992 23.9929ZM110.794 28.3798V12.2178H115.095L122.169 21.4301H118.933L126.03 12.2178H130.284V28.3798H125.476V24.3393C125.476 23.0463 125.506 21.838 125.568 20.7144C125.645 19.5907 125.768 18.4517 125.938 17.2972L126.447 18.8211L121.291 24.9858H119.765L114.563 18.7518L115.141 17.2972C115.326 18.4363 115.449 19.5676 115.511 20.6913C115.573 21.7995 115.603 23.0155 115.603 24.3393V28.3798H110.794ZM137.098 28.3798V12.2178H146.669C147.841 12.2178 148.881 12.4563 149.79 12.9335C150.715 13.4107 151.447 14.0648 151.987 14.896C152.526 15.7272 152.796 16.6815 152.796 17.759C152.796 18.9134 152.511 19.9447 151.94 20.8529C151.386 21.761 150.615 22.4768 149.629 23.0001C148.642 23.5081 147.532 23.7621 146.299 23.7621H142.091V28.3798H137.098ZM141.999 19.5138H145.236C145.683 19.5138 146.076 19.4522 146.415 19.329C146.769 19.2059 147.047 19.0212 147.247 18.7749C147.463 18.5132 147.571 18.2054 147.571 17.8514C147.571 17.5281 147.463 17.2665 147.247 17.0664C147.047 16.8663 146.769 16.72 146.415 16.6277C146.076 16.5199 145.683 16.4661 145.236 16.4661H141.999V19.5138ZM163.581 28.3798V16.4661H157.292V12.2178H175.002V16.4661H168.575V28.3798H163.581Z" fill="white"/>
</svg>
